<svg width="30" height="31" viewBox="0 0 30 31" fill="none" xmlns="http://www.w3.org/2000/svg">
<path opacity="0.5" fill-rule="evenodd" clip-rule="evenodd" d="M30 15.125C30 6.84073 23.2843 0.125 15 0.125C6.71573 0.125 0 6.84073 0 15.125C0 23.4093 6.71573 30.125 15 30.125C23.2843 30.125 30 23.4093 30 15.125ZM17.3741 10.8321C17.7646 10.4416 17.7646 9.80842 17.3741 9.41789C16.9836 9.02737 16.3504 9.02737 15.9599 9.41789L10.9599 14.4179C10.5694 14.8084 10.5694 15.4416 10.9599 15.8321L15.9599 20.8321C16.3504 21.2226 16.9836 21.2226 17.3741 20.8321C17.7646 20.4416 17.7646 19.8084 17.3741 19.4179L13.0812 15.125L17.3741 10.8321Z" fill="#DCE3E7"/>
</svg>
