<svg width="30" height="31" viewBox="0 0 30 31" fill="none" xmlns="http://www.w3.org/2000/svg">
<path opacity="0.5" fill-rule="evenodd" clip-rule="evenodd" d="M0 15.125C0 6.84073 6.71573 0.125 15 0.125C23.2843 0.125 30 6.84073 30 15.125C30 23.4093 23.2843 30.125 15 30.125C6.71573 30.125 0 23.4093 0 15.125ZM12.6259 10.8321C12.2354 10.4416 12.2354 9.80842 12.6259 9.41789C13.0164 9.02737 13.6496 9.02737 14.0401 9.41789L19.0401 14.4179C19.4306 14.8084 19.4306 15.4416 19.0401 15.8321L14.0401 20.8321C13.6496 21.2226 13.0164 21.2226 12.6259 20.8321C12.2354 20.4416 12.2354 19.8084 12.6259 19.4179L16.9188 15.125L12.6259 10.8321Z" fill="#DCE3E7"/>
</svg>
